<svg width="146" height="77" viewBox="0 0 146 77" fill="none" xmlns="http://www.w3.org/2000/svg">
<path opacity="0.2" d="M137.402 57.6087L60.2284 57.6087" stroke="black" stroke-width="4" stroke-linecap="round"/>
<path d="M101.533 48.913H76.5327" stroke="#E7B162" stroke-width="4" stroke-linecap="round"/>
<path d="M86.8589 31.5217L49.9024 31.5217" stroke="#E7B162" stroke-width="4" stroke-linecap="round"/>
<path opacity="0.2" d="M96.6416 14.1304L64.0329 14.1304" stroke="black" stroke-width="4" stroke-linecap="round"/>
<path d="M65.1196 22.8261L25.9892 22.8261" stroke="#E7B162" stroke-width="4" stroke-linecap="round"/>
<path d="M91.75 5.43478L13.4891 5.43478" stroke="#E7B162" stroke-width="4" stroke-linecap="round"/>
<path d="M67.8369 66.3043H12.4021" stroke="#E7B162" stroke-width="4" stroke-linecap="round"/>
<path d="M117.837 75H49.3587" stroke="#E7B162" stroke-width="4" stroke-linecap="round"/>
<path d="M77.0762 40.2174H42.2936" stroke="#E7B162" stroke-width="4" stroke-linecap="round"/>
<path opacity="0.2" d="M118.818 3.88052L138.484 39.3336C138.669 39.6668 138.428 40.0761 138.047 40.0761H98.7143C98.3332 40.0761 98.0922 39.6668 98.2771 39.3335L117.943 3.88051C118.134 3.53724 118.627 3.53723 118.818 3.88052Z" stroke="black" stroke-width="3"/>
<circle opacity="0.2" cx="118.38" cy="33.1522" r="1.63043" fill="black"/>
<rect opacity="0.2" x="116.75" y="15.2174" width="3.26087" height="13.0435" rx="1.63043" fill="black"/>
<circle opacity="0.2" cx="14.5762" cy="44.0217" r="12.087" stroke="black" stroke-width="3"/>
<path opacity="0.2" d="M14.3047 36.9565V44.4847L17.5656 48.913" stroke="black" stroke-width="2" stroke-linecap="round"/>
</svg>
