<svg width="155" height="75" viewBox="0 0 155 75" fill="none" xmlns="http://www.w3.org/2000/svg">
<path d="M41.9453 22.8261L41.9453 13.0435" stroke="#E7B162" stroke-width="3" stroke-linecap="round" stroke-linejoin="round"/>
<path d="M48.4673 22.8261L48.4673 2.17391" stroke="#E7B162" stroke-width="3" stroke-linecap="round" stroke-linejoin="round"/>
<path opacity="0.2" d="M8.52148 61.9565L18.3041 61.9565" stroke="black" stroke-width="3" stroke-linecap="round" stroke-linejoin="round"/>
<path opacity="0.2" d="M8.52148 68.4782L29.1737 68.4782" stroke="black" stroke-width="3" stroke-linecap="round" stroke-linejoin="round"/>
<path d="M54.9888 22.8261L54.9888 14.1304" stroke="#E7B162" stroke-width="3" stroke-linecap="round" stroke-linejoin="round"/>
<path d="M61.5107 22.8261L61.5107 17.3913" stroke="#E7B162" stroke-width="3" stroke-linecap="round" stroke-linejoin="round"/>
<path d="M68.0322 22.8261L68.0322 14.1304" stroke="#E7B162" stroke-width="3" stroke-linecap="round" stroke-linejoin="round"/>
<circle opacity="0.2" cx="14.2281" cy="13.587" r="12.087" stroke="black" stroke-width="3"/>
<path opacity="0.2" d="M13.9565 6.52174V14.0499L17.2174 18.4783" stroke="black" stroke-width="2" stroke-linecap="round"/>
<mask id="path-10-inside-1" fill="white">
<path d="M95.9311 17.2352C95.5099 18.6951 94.7351 20.0285 93.6755 21.1174C92.6159 22.2063 91.304 23.017 89.8562 23.4779C88.4084 23.9387 86.8693 24.0353 85.3752 23.7592C83.8811 23.4831 82.4782 22.8428 81.2906 21.895C80.1031 20.9472 79.1677 19.7212 78.5672 18.3255C77.9667 16.9298 77.7196 15.4076 77.8479 13.8936C77.9763 12.3797 78.476 10.9207 79.3028 9.64602C80.1297 8.37132 81.2581 7.32021 82.5882 6.5858L84.4643 9.98352C83.6929 10.4094 83.0385 11.019 82.559 11.7582C82.0795 12.4974 81.7897 13.3435 81.7153 14.2214C81.6409 15.0994 81.7842 15.9821 82.1324 16.7915C82.4807 17.6009 83.0231 18.3119 83.7118 18.8615C84.4004 19.4112 85.214 19.7825 86.0805 19.9426C86.9469 20.1027 87.8395 20.0467 88.6791 19.7794C89.5187 19.5122 90.2794 19.042 90.8939 18.4105C91.5084 17.7791 91.9577 17.0058 92.2019 16.1592L95.9311 17.2352Z"/>
</mask>
<path d="M95.9311 17.2352C95.5099 18.6951 94.7351 20.0285 93.6755 21.1174C92.6159 22.2063 91.304 23.017 89.8562 23.4779C88.4084 23.9387 86.8693 24.0353 85.3752 23.7592C83.8811 23.4831 82.4782 22.8428 81.2906 21.895C80.1031 20.9472 79.1677 19.7212 78.5672 18.3255C77.9667 16.9298 77.7196 15.4076 77.8479 13.8936C77.9763 12.3797 78.476 10.9207 79.3028 9.64602C80.1297 8.37132 81.2581 7.32021 82.5882 6.5858L84.4643 9.98352C83.6929 10.4094 83.0385 11.019 82.559 11.7582C82.0795 12.4974 81.7897 13.3435 81.7153 14.2214C81.6409 15.0994 81.7842 15.9821 82.1324 16.7915C82.4807 17.6009 83.0231 18.3119 83.7118 18.8615C84.4004 19.4112 85.214 19.7825 86.0805 19.9426C86.9469 20.1027 87.8395 20.0467 88.6791 19.7794C89.5187 19.5122 90.2794 19.042 90.8939 18.4105C91.5084 17.7791 91.9577 17.0058 92.2019 16.1592L95.9311 17.2352Z" fill="#E7B162" stroke="#E7B162" stroke-width="6" stroke-linejoin="round" mask="url(#path-10-inside-1)"/>
<g opacity="0.2">
<mask id="path-11-inside-2" fill="white">
<path d="M87.8874 5.47244C90.1307 5.67561 92.2226 6.69133 93.7696 8.3286C95.3166 9.96588 96.2122 12.1119 96.288 14.3632L92.5492 14.489C92.5041 13.1493 91.9711 11.8721 91.0505 10.8978C90.1299 9.92345 88.885 9.31899 87.55 9.19809L87.8874 5.47244Z"/>
</mask>
<path d="M87.8874 5.47244C90.1307 5.67561 92.2226 6.69133 93.7696 8.3286C95.3166 9.96588 96.2122 12.1119 96.288 14.3632L92.5492 14.489C92.5041 13.1493 91.9711 11.8721 91.0505 10.8978C90.1299 9.92345 88.885 9.31899 87.55 9.19809L87.8874 5.47244Z" stroke="black" stroke-width="6" stroke-linejoin="round" mask="url(#path-11-inside-2)"/>
</g>
<mask id="path-12-inside-3" fill="white">
<path d="M24.1918 44.4091C23.7706 45.869 22.9959 47.2024 21.9362 48.2913C20.8766 49.3802 19.5648 50.1909 18.117 50.6518C16.6691 51.1126 15.13 51.2092 13.6359 50.9331C12.1418 50.657 10.7389 50.0167 9.55138 49.0689C8.36387 48.1211 7.42842 46.8951 6.82792 45.4994C6.22741 44.1037 5.98037 42.5815 6.10869 41.0675C6.23701 39.5536 6.73672 38.0946 7.56356 36.8199C8.3904 35.5452 9.51885 34.4941 10.8489 33.7597L12.7537 37.2094C11.9909 37.6306 11.3438 38.2334 10.8696 38.9644C10.3954 39.6954 10.1089 40.5321 10.0353 41.4003C9.9617 42.2686 10.1034 43.1415 10.4477 43.9419C10.7921 44.7423 11.3286 45.4454 12.0096 45.989C12.6906 46.5325 13.4952 46.8997 14.352 47.0581C15.2088 47.2164 16.0915 47.161 16.9218 46.8967C17.7521 46.6324 18.5044 46.1675 19.1121 45.543C19.7197 44.9186 20.164 44.1539 20.4056 43.3167L24.1918 44.4091Z"/>
</mask>
<path d="M24.1918 44.4091C23.7706 45.869 22.9959 47.2024 21.9362 48.2913C20.8766 49.3802 19.5648 50.1909 18.117 50.6518C16.6691 51.1126 15.13 51.2092 13.6359 50.9331C12.1418 50.657 10.7389 50.0167 9.55138 49.0689C8.36387 48.1211 7.42842 46.8951 6.82792 45.4994C6.22741 44.1037 5.98037 42.5815 6.10869 41.0675C6.23701 39.5536 6.73672 38.0946 7.56356 36.8199C8.3904 35.5452 9.51885 34.4941 10.8489 33.7597L12.7537 37.2094C11.9909 37.6306 11.3438 38.2334 10.8696 38.9644C10.3954 39.6954 10.1089 40.5321 10.0353 41.4003C9.9617 42.2686 10.1034 43.1415 10.4477 43.9419C10.7921 44.7423 11.3286 45.4454 12.0096 45.989C12.6906 46.5325 13.4952 46.8997 14.352 47.0581C15.2088 47.2164 16.0915 47.161 16.9218 46.8967C17.7521 46.6324 18.5044 46.1675 19.1121 45.543C19.7197 44.9186 20.164 44.1539 20.4056 43.3167L24.1918 44.4091Z" fill="#E7B162" stroke="#E7B162" stroke-width="6" stroke-linejoin="round" mask="url(#path-12-inside-3)"/>
<rect x="48.7709" y="33.1873" width="10.0435" height="13.3043" rx="5.02174" transform="rotate(-0.82237 48.7709 33.1873)" stroke="#E7B162" stroke-width="3"/>
<path fill-rule="evenodd" clip-rule="evenodd" d="M46.2173 54.0869H61.0434C61.5957 54.0869 62.0434 54.5347 62.0434 55.0869V75H65.0434V55.0869C65.0434 52.8778 63.2525 51.0869 61.0434 51.0869H46.2173C44.0081 51.0869 42.2173 52.8778 42.2173 55.0869V75H45.2173V55.0869C45.2173 54.5347 45.665 54.0869 46.2173 54.0869Z" fill="#E7B162"/>
<rect x="1.52302" y="1.4798" width="10.0433" height="12.1621" rx="5.02165" transform="matrix(0.999911 -0.0133471 0.0154338 0.999881 75.488 34.9772)" stroke="#E7B162" stroke-width="3"/>
<path fill-rule="evenodd" clip-rule="evenodd" d="M74.478 55.7626H89.3041C89.8564 55.7626 90.3041 56.2103 90.3041 56.7626V75H93.3041V56.7626C93.3041 54.5534 91.5133 52.7626 89.3041 52.7626H74.478C72.2689 52.7626 70.478 54.5534 70.478 56.7626V75H73.478V56.7626C73.478 56.2103 73.9257 55.7626 74.478 55.7626Z" fill="#E7B162"/>
<rect x="1.52126" y="1.4782" width="10.0435" height="13.3912" rx="5.02174" transform="matrix(0.999896 -0.014429 0.0142765 0.999898 103.751 31.732)" stroke="#E7B162" stroke-width="3"/>
<path fill-rule="evenodd" clip-rule="evenodd" d="M102.739 53.9595H117.565C118.118 53.9595 118.565 54.4072 118.565 54.9595V75H121.565V54.9595C121.565 52.7504 119.774 50.9595 117.565 50.9595H102.739C100.53 50.9595 98.7393 52.7504 98.7393 54.9595V75H101.739V54.9595C101.739 54.4072 102.187 53.9595 102.739 53.9595Z" fill="#E7B162"/>
<rect x="1.51928" y="1.47607" width="10.0438" height="12.4031" rx="5.02189" transform="matrix(0.999874 -0.0158716 0.0129789 0.999916 132.421 27.4052)" stroke="#E7B162" stroke-width="3"/>
<path fill-rule="evenodd" clip-rule="evenodd" d="M131.408 50.8261H146.234C146.786 50.8261 147.234 51.2738 147.234 51.8261V75H150.234V51.8261C150.234 49.6169 148.443 47.8261 146.234 47.8261H131.408C129.199 47.8261 127.408 49.6169 127.408 51.8261V75H130.408V51.8261C130.408 51.2738 130.855 50.8261 131.408 50.8261Z" fill="#E7B162"/>
<path opacity="0.2" d="M105.532 15.2174L118.576 3.26087L128.902 8.15217L135.424 6.52174L146.837 12.5L153.358 10.8696" stroke="black" stroke-width="3" stroke-linecap="round" stroke-linejoin="round"/>
</svg>
