<svg width="154" height="75" viewBox="0 0 154 75" fill="none" xmlns="http://www.w3.org/2000/svg">
<g opacity="0.2">
<mask id="path-1-inside-1" fill="white">
<rect x="4.05469" width="60.6164" height="33.9041" rx="2"/>
</mask>
<rect x="4.05469" width="60.6164" height="33.9041" rx="2" stroke="black" stroke-width="6" mask="url(#path-1-inside-1)"/>
</g>
<mask id="path-2-inside-2" fill="white">
<rect x="48.7466" y="15.411" width="69.863" height="35.9589" rx="2"/>
</mask>
<rect x="48.7466" y="15.411" width="69.863" height="35.9589" rx="2" stroke="#E7B162" stroke-width="8" stroke-linejoin="round" mask="url(#path-2-inside-2)"/>
<mask id="path-3-inside-3" fill="white">
<rect x="79.5684" y="4.10959" width="54.4521" height="25.6849" rx="1.83098"/>
</mask>
<rect x="79.5684" y="4.10959" width="54.4521" height="25.6849" rx="1.83098" stroke="#E7B162" stroke-width="5.49295" stroke-linejoin="round" mask="url(#path-3-inside-3)"/>
<g opacity="0.2">
<mask id="path-4-inside-4" fill="white">
<rect x="34.877" y="57.5342" width="73.9726" height="11.3014" rx="2"/>
</mask>
<rect x="34.877" y="57.5342" width="73.9726" height="11.3014" rx="2" stroke="black" stroke-width="6" stroke-linejoin="round" mask="url(#path-4-inside-4)"/>
</g>
<rect opacity="0.2" x="128.35" y="35.5594" width="9.32877" height="12.411" rx="4.66438" transform="rotate(-0.82237 128.35 35.5594)" stroke="black" stroke-width="3"/>
<path opacity="0.2" fill-rule="evenodd" clip-rule="evenodd" d="M125.692 55.3973H139.267C139.82 55.3973 140.267 55.845 140.267 56.3973V75H143.267V56.3973C143.267 54.1881 141.476 52.3973 139.267 52.3973H125.692C123.483 52.3973 121.692 54.1881 121.692 56.3973V75H124.692V56.3973C124.692 55.845 125.14 55.3973 125.692 55.3973Z" fill="black"/>
<mask id="path-7-inside-5" fill="white">
<rect x="0.458984" y="38.0137" width="71.9178" height="36.9863" rx="2"/>
</mask>
<rect x="0.458984" y="38.0137" width="71.9178" height="36.9863" rx="2" stroke="#E7B162" stroke-width="6" stroke-linejoin="round" mask="url(#path-7-inside-5)"/>
<path opacity="0.2" d="M144.953 31.218V30.3608C144.953 29.3787 145.131 28.5617 145.488 27.9099C145.846 27.2581 146.471 26.584 147.363 25.8876C148.426 25.0483 149.109 24.3965 149.412 23.9322C149.725 23.468 149.881 22.9144 149.881 22.2715C149.881 21.5215 149.631 20.9456 149.131 20.5438C148.631 20.1421 147.912 19.9412 146.975 19.9412C146.127 19.9412 145.341 20.0617 144.618 20.3028C143.895 20.5438 143.189 20.834 142.502 21.1733L141.377 18.8162C143.189 17.8072 145.131 17.3028 147.203 17.3028C148.953 17.3028 150.341 17.7313 151.368 18.5885C152.395 19.4456 152.908 20.6287 152.908 22.1376C152.908 22.8072 152.81 23.4055 152.613 23.9322C152.417 24.4501 152.118 24.9456 151.716 25.4188C151.323 25.8921 150.64 26.5081 149.667 27.2671C148.837 27.9188 148.279 28.459 147.993 28.8876C147.716 29.3162 147.578 29.8921 147.578 30.6153V31.218H144.953ZM144.404 35.4903C144.404 34.1421 145.06 33.468 146.372 33.468C147.015 33.468 147.506 33.6465 147.846 34.0037C148.185 34.3519 148.354 34.8474 148.354 35.4903C148.354 36.1242 148.18 36.6287 147.832 37.0037C147.493 37.3697 147.006 37.5528 146.372 37.5528C145.738 37.5528 145.252 37.3742 144.912 37.0171C144.573 36.651 144.404 36.1421 144.404 35.4903Z" fill="black"/>
</svg>
